<svg xmlns="http://www.w3.org/2000/svg" xmlns:xlink="http://www.w3.org/1999/xlink" width="500" zoomAndPan="magnify" viewBox="0 0 375 374.999991" height="500" preserveAspectRatio="xMidYMid meet" version="1.0"><defs><g/><clipPath id="edb7447754"><path d="M 139 100.445312 L 236.410156 100.445312 L 236.410156 193 L 139 193 Z M 139 100.445312 " clip-rule="nonzero"/></clipPath><clipPath id="e9ad294659"><path d="M 186 123 L 190 123 L 190 209.941406 L 186 209.941406 Z M 186 123 " clip-rule="nonzero"/></clipPath></defs><rect x="-37.5" width="450" fill="#ffffff" y="-37.499999" height="449.999989" fill-opacity="1"/><rect x="-37.5" width="450" fill="#ffffff" y="-37.499999" height="449.999989" fill-opacity="1"/><rect x="-37.5" width="450" fill="#ffffff" y="-37.499999" height="449.999989" fill-opacity="1"/><g clip-path="url(#edb7447754)"><path fill="#023047" d="M 235.644531 144.113281 L 208.566406 120.535156 L 208.566406 101.925781 C 208.566406 101.105469 207.902344 100.445312 207.078125 100.445312 C 206.253906 100.445312 205.585938 101.105469 205.585938 101.925781 L 205.585938 117.945312 L 189.023438 103.515625 C 188.46875 103.03125 187.632812 103.03125 187.074219 103.507812 L 139.675781 144.105469 C 139.050781 144.640625 138.980469 145.578125 139.515625 146.195312 C 139.808594 146.539062 140.226562 146.714844 140.644531 146.714844 C 140.988281 146.714844 141.335938 146.597656 141.617188 146.355469 L 188.035156 106.59375 L 205.59375 121.882812 L 205.59375 191.242188 C 205.59375 192.0625 206.257812 192.726562 207.082031 192.726562 C 207.90625 192.726562 208.570312 192.0625 208.570312 191.242188 L 208.570312 124.476562 L 233.6875 146.347656 C 234.304688 146.882812 235.246094 146.820312 235.785156 146.210938 C 236.328125 145.59375 236.261719 144.65625 235.644531 144.113281 Z M 235.644531 144.113281 " fill-opacity="1" fill-rule="nonzero"/></g><path fill="#023047" d="M 149.773438 152.898438 C 148.949219 152.898438 148.285156 153.5625 148.285156 154.382812 L 148.285156 169.074219 C 148.285156 169.894531 148.949219 170.558594 149.773438 170.558594 C 150.597656 170.558594 151.261719 169.894531 151.261719 169.074219 L 151.261719 154.382812 C 151.261719 153.566406 150.597656 152.898438 149.773438 152.898438 Z M 149.773438 152.898438 " fill-opacity="1" fill-rule="nonzero"/><path fill="#023047" d="M 226.308594 152.898438 C 225.484375 152.898438 224.816406 153.5625 224.816406 154.382812 L 224.816406 169.074219 C 224.816406 169.894531 225.484375 170.558594 226.308594 170.558594 C 227.132812 170.558594 227.796875 169.894531 227.796875 169.074219 L 227.796875 154.382812 C 227.796875 153.566406 227.132812 152.898438 226.308594 152.898438 Z M 226.308594 152.898438 " fill-opacity="1" fill-rule="nonzero"/><path fill="#023047" d="M 168.808594 135.5 C 167.984375 135.5 167.320312 136.164062 167.320312 136.984375 L 167.320312 185.316406 C 167.320312 186.136719 167.984375 186.796875 168.808594 186.796875 C 169.636719 186.796875 170.300781 186.136719 170.300781 185.316406 L 170.300781 136.984375 C 170.300781 136.164062 169.636719 135.5 168.808594 135.5 Z M 168.808594 135.5 " fill-opacity="1" fill-rule="nonzero"/><g clip-path="url(#e9ad294659)"><path fill="#023047" d="M 187.65625 123.453125 C 186.832031 123.453125 186.164062 124.113281 186.164062 124.933594 L 186.164062 208.453125 C 186.164062 209.273438 186.832031 209.933594 187.65625 209.933594 C 188.480469 209.933594 189.144531 209.273438 189.144531 208.453125 L 189.144531 124.929688 C 189.140625 124.113281 188.476562 123.453125 187.65625 123.453125 Z M 187.65625 123.453125 " fill-opacity="1" fill-rule="nonzero"/></g><g fill="#000000" fill-opacity="1"><g transform="translate(127.746003, 244.141494)"><g><path d="M 7.75 0.203125 C 5.738281 0.203125 4.242188 -0.269531 3.265625 -1.21875 C 2.296875 -2.175781 1.8125 -3.597656 1.8125 -5.484375 L 1.8125 -14.625 L 4.640625 -14.625 L 4.640625 -5.5 C 4.640625 -4.4375 4.894531 -3.632812 5.40625 -3.09375 C 5.925781 -2.5625 6.707031 -2.296875 7.75 -2.296875 C 9.820312 -2.296875 10.859375 -3.363281 10.859375 -5.5 L 10.859375 -14.625 L 13.6875 -14.625 L 13.6875 -5.484375 C 13.6875 -3.597656 13.195312 -2.175781 12.21875 -1.21875 C 11.25 -0.269531 9.757812 0.203125 7.75 0.203125 Z M 7.75 0.203125 "/></g></g></g><g fill="#000000" fill-opacity="1"><g transform="translate(144.264607, 244.141494)"><g><path d="M 7.546875 -14.625 C 8.597656 -14.625 9.492188 -14.429688 10.234375 -14.046875 C 10.984375 -13.660156 11.546875 -13.125 11.921875 -12.4375 C 12.304688 -11.75 12.5 -10.945312 12.5 -10.03125 C 12.5 -9.113281 12.304688 -8.3125 11.921875 -7.625 C 11.546875 -6.9375 10.984375 -6.398438 10.234375 -6.015625 C 9.492188 -5.640625 8.597656 -5.453125 7.546875 -5.453125 L 4.796875 -5.453125 L 4.796875 0 L 1.90625 0 L 1.90625 -14.625 Z M 7.171875 -7.734375 C 8.773438 -7.734375 9.578125 -8.5 9.578125 -10.03125 C 9.578125 -11.5625 8.773438 -12.328125 7.171875 -12.328125 L 4.796875 -12.328125 L 4.796875 -7.734375 Z M 7.171875 -7.734375 "/></g></g></g><g fill="#000000" fill-opacity="1"><g transform="translate(158.643979, 244.141494)"><g><path d="M 6.484375 0.203125 C 5.472656 0.203125 4.570312 0.078125 3.78125 -0.171875 C 2.988281 -0.421875 2.328125 -0.75 1.796875 -1.15625 C 1.273438 -1.5625 0.875 -2.003906 0.59375 -2.484375 L 2.1875 -4.4375 L 2.4375 -4.4375 C 2.875 -3.78125 3.429688 -3.257812 4.109375 -2.875 C 4.785156 -2.488281 5.578125 -2.296875 6.484375 -2.296875 C 7.253906 -2.296875 7.835938 -2.457031 8.234375 -2.78125 C 8.628906 -3.101562 8.828125 -3.550781 8.828125 -4.125 C 8.828125 -4.476562 8.757812 -4.769531 8.625 -5 C 8.5 -5.226562 8.289062 -5.425781 8 -5.59375 C 7.707031 -5.757812 7.3125 -5.90625 6.8125 -6.03125 L 4.9375 -6.46875 C 3.613281 -6.757812 2.628906 -7.253906 1.984375 -7.953125 C 1.347656 -8.648438 1.03125 -9.554688 1.03125 -10.671875 C 1.03125 -11.492188 1.234375 -12.21875 1.640625 -12.84375 C 2.054688 -13.476562 2.660156 -13.96875 3.453125 -14.3125 C 4.242188 -14.65625 5.191406 -14.828125 6.296875 -14.828125 C 7.421875 -14.828125 8.382812 -14.675781 9.1875 -14.375 C 9.988281 -14.082031 10.664062 -13.628906 11.21875 -13.015625 L 9.796875 -11.0625 L 9.546875 -11.0625 C 9.128906 -11.5 8.65625 -11.820312 8.125 -12.03125 C 7.59375 -12.25 6.984375 -12.359375 6.296875 -12.359375 C 5.492188 -12.359375 4.882812 -12.21875 4.46875 -11.9375 C 4.0625 -11.65625 3.859375 -11.269531 3.859375 -10.78125 C 3.859375 -10.320312 4.003906 -9.953125 4.296875 -9.671875 C 4.585938 -9.398438 5.085938 -9.191406 5.796875 -9.046875 L 7.71875 -8.640625 C 9.144531 -8.335938 10.175781 -7.828125 10.8125 -7.109375 C 11.445312 -6.398438 11.765625 -5.46875 11.765625 -4.3125 C 11.765625 -3.394531 11.566406 -2.597656 11.171875 -1.921875 C 10.785156 -1.242188 10.195312 -0.71875 9.40625 -0.34375 C 8.613281 0.0195312 7.640625 0.203125 6.484375 0.203125 Z M 6.484375 0.203125 "/></g></g></g><g fill="#000000" fill-opacity="1"><g transform="translate(172.223638, 244.141494)"><g><path d="M 4.796875 -6.421875 L 4.796875 -2.421875 L 11.765625 -2.421875 L 11.765625 0 L 1.90625 0 L 1.90625 -14.625 L 11.609375 -14.625 L 11.609375 -12.203125 L 4.796875 -12.203125 L 4.796875 -8.78125 L 10.75 -8.78125 L 10.75 -6.421875 Z M 4.796875 -6.421875 "/></g></g></g><g fill="#000000" fill-opacity="1"><g transform="translate(185.813299, 244.141494)"><g><path d="M 14.03125 0 L 11 0 L 9.890625 -3.375 L 4.296875 -3.375 L 3.1875 0 L 0.21875 0 L 5.265625 -14.625 L 8.984375 -14.625 Z M 6.953125 -11.578125 L 5.078125 -5.796875 L 9.09375 -5.796875 L 7.203125 -11.578125 Z M 6.953125 -11.578125 "/></g></g></g><g fill="#000000" fill-opacity="1"><g transform="translate(201.082359, 244.141494)"><g><path d="M 1.90625 0 L 1.90625 -14.625 L 7.765625 -14.625 C 9.285156 -14.625 10.429688 -14.273438 11.203125 -13.578125 C 11.972656 -12.878906 12.359375 -11.914062 12.359375 -10.6875 C 12.359375 -9.800781 12.128906 -9.070312 11.671875 -8.5 C 11.222656 -7.9375 10.550781 -7.507812 9.65625 -7.21875 L 9.65625 -7 C 10.125 -6.800781 10.5 -6.503906 10.78125 -6.109375 C 11.0625 -5.710938 11.328125 -5.128906 11.578125 -4.359375 L 13.046875 0 L 10.078125 0 L 8.640625 -4.375 C 8.492188 -4.8125 8.328125 -5.148438 8.140625 -5.390625 C 7.960938 -5.640625 7.726562 -5.816406 7.4375 -5.921875 C 7.15625 -6.035156 6.789062 -6.09375 6.34375 -6.09375 L 4.796875 -6.09375 L 4.796875 0 Z M 7.421875 -8.375 C 8.816406 -8.375 9.515625 -9.03125 9.515625 -10.34375 C 9.515625 -11.664062 8.816406 -12.328125 7.421875 -12.328125 L 4.796875 -12.328125 L 4.796875 -8.375 Z M 7.421875 -8.375 "/></g></g></g><g fill="#000000" fill-opacity="1"><g transform="translate(215.771628, 244.141494)"><g><path d="M 7.984375 0.203125 C 6.640625 0.203125 5.453125 -0.0703125 4.421875 -0.625 C 3.398438 -1.1875 2.597656 -2.03125 2.015625 -3.15625 C 1.441406 -4.28125 1.15625 -5.664062 1.15625 -7.3125 C 1.15625 -8.957031 1.441406 -10.34375 2.015625 -11.46875 C 2.597656 -12.59375 3.398438 -13.429688 4.421875 -13.984375 C 5.453125 -14.546875 6.640625 -14.828125 7.984375 -14.828125 C 9.398438 -14.828125 10.597656 -14.550781 11.578125 -14 C 12.554688 -13.457031 13.257812 -12.625 13.6875 -11.5 L 11.578125 -10.203125 L 11.328125 -10.21875 C 11.015625 -10.976562 10.585938 -11.519531 10.046875 -11.84375 C 9.503906 -12.175781 8.816406 -12.34375 7.984375 -12.34375 C 6.773438 -12.34375 5.828125 -11.941406 5.140625 -11.140625 C 4.460938 -10.335938 4.125 -9.0625 4.125 -7.3125 C 4.125 -5.570312 4.460938 -4.300781 5.140625 -3.5 C 5.828125 -2.695312 6.773438 -2.296875 7.984375 -2.296875 C 9.890625 -2.296875 11.054688 -3.21875 11.484375 -5.0625 L 11.734375 -5.0625 L 13.859375 -3.953125 C 13.460938 -2.566406 12.78125 -1.523438 11.8125 -0.828125 C 10.84375 -0.140625 9.566406 0.203125 7.984375 0.203125 Z M 7.984375 0.203125 "/></g></g></g><g fill="#000000" fill-opacity="1"><g transform="translate(231.130651, 244.141494)"><g><path d="M 11.34375 -9.125 L 11.34375 -14.625 L 14.21875 -14.625 L 14.21875 0 L 11.34375 0 L 11.34375 -6.65625 L 4.796875 -6.65625 L 4.796875 0 L 1.90625 0 L 1.90625 -14.625 L 4.796875 -14.625 L 4.796875 -9.125 Z M 11.34375 -9.125 "/></g></g></g></svg>